<?xml version="1.0" ?><svg viewBox="0 0 64 64" xmlns="http://www.w3.org/2000/svg"><title/><g data-name="Day 23" id="65560156-bb18-44a0-80a1-df2ee73e9291"><rect data-name="&lt;Path&gt;" fill="#ab3535" height="5" id="3ca8cacb-1512-4e4f-b9cc-62d2141793e0" width="4" x="12" y="36"/><polygon data-name="&lt;Path&gt;" fill="#4fab35" id="a277caf0-9ea7-4510-89de-4d4e612a2fc7" points="40 46 40 47 29 47 29 43 40 43 40 46"/><polygon data-name="&lt;Path&gt;" fill="#799980" id="0c7a803c-a766-4599-a127-7e7028d2169b" points="29 41 29 47 8 47 10 41 29 41"/><polygon data-name="&lt;Path&gt;" fill="#87ab8f" id="4913c888-0f43-47ac-8fed-05abdabf4279" points="26 41 26 47 8 47 10 41 26 41"/><path d="M40,33v5H19c2.12-1.77,4-3.52,5.77-5.23L25,33Z" data-name="&lt;Path&gt;" fill="#71a3de" id="269c492a-2393-473b-907a-08bb4e9f9f07"/><path d="M40,28v5H25l-.23-.23c1.8-1.76,3.39-3.48,4.81-5.12L30,28Z" data-name="&lt;Path&gt;" fill="#8171de" id="4d04966b-610c-4ce7-8537-db01e2669631"/><path d="M40,11V23H34l-.47-.34C38.53,15.74,40,11,40,11Z" data-name="&lt;Path&gt;" fill="#8171de" id="b9c44f9e-eb86-4bcf-89bb-60d667659742"/><path d="M40,23v5H30l-.42-.35c1.52-1.76,2.82-3.43,4-5L34,23Z" data-name="&lt;Path&gt;" fill="#71a3de" id="62c2d1c0-eca4-4701-99e4-1de0711b3975"/><polygon data-name="&lt;Path&gt;" fill="#5197e8" id="62f66bd6-2b1b-4fde-911b-97d867722d98" points="57 38 41 44 40 43 40 10 57 38"/><polygon data-name="&lt;Path&gt;" fill="#71a3de" id="2e5a9874-c0e8-488c-a78d-3a0ca47bd5aa" points="55 35 40 40.63 40 10.29 55 35"/><circle cx="16.5" cy="50.5" data-name="&lt;Path&gt;" fill="#001c63" id="442a95f0-5597-42fc-b6cd-2111c5cad8ed" r="1.5"/><path d="M13,50.5A1.5,1.5,0,1,0,11.5,52,1.5,1.5,0,0,0,13,50.5ZM8,47H59l-7,8H7L5,47Zm8.5,5A1.5,1.5,0,1,0,15,50.5,1.5,1.5,0,0,0,16.5,52Z" data-name="&lt;Compound Path&gt;" fill="#35a9ab" id="9d9f3440-4558-4629-adb2-ba97be6cefe9"/><circle cx="11.5" cy="50.5" data-name="&lt;Path&gt;" fill="#001c63" id="df21d2fc-171a-4fb8-a36d-d58780cdf221" r="1.5"/><polyline data-name="&lt;Path&gt;" fill="none" id="e94752b6-95ea-42e8-acdd-fb86b248fd50" points="40 47 59 47 52 55 7 55 5 47 8 47" stroke="#001c63" stroke-linecap="round" stroke-linejoin="round" stroke-width="2"/><polyline data-name="&lt;Path&gt;" fill="none" id="014f8140-4ebc-4452-bff8-e46dfc0f535e" points="40 10 40 11 40 23 40 28 40 33 40 38 40 43" stroke="#001c63" stroke-linecap="round" stroke-linejoin="round" stroke-width="2"/><polyline data-name="&lt;Path&gt;" fill="none" id="56a9845b-bfbf-4937-b193-1a5d05134fe0" points="41 44 57 38 40 10" stroke="#001c63" stroke-linecap="round" stroke-linejoin="round" stroke-width="2"/><path d="M40,11s-1.47,4.74-6.47,11.66c-1.13,1.56-2.43,3.23-4,5s-3,3.36-4.81,5.12S21.12,36.23,19,38H40" data-name="&lt;Path&gt;" fill="none" id="457fd5b6-2ad3-4d7f-a877-851eab760141" stroke="#001c63" stroke-linecap="round" stroke-linejoin="round" stroke-width="2"/><polygon data-name="&lt;Path&gt;" fill="#99de8a" id="cf279158-eb3d-4d86-aba7-5948a638b50d" points="40 5 40 4 48 4 46.55 7 48 10 40 10 40 5"/><polygon data-name="&lt;Path&gt;" fill="none" id="1849c745-a381-47a7-b646-df22d62aea9c" points="40 5 40 4 48 4 46.55 7 48 10 40 10 40 5" stroke="#001c63" stroke-linecap="round" stroke-linejoin="round" stroke-width="2"/><polyline data-name="&lt;Path&gt;" fill="none" id="e3e4909f-ae9c-424a-883f-208cf9f3c1de" points="16 41 29 41 29 43" stroke="#001c63" stroke-linecap="round" stroke-linejoin="round" stroke-width="2"/><polyline data-name="&lt;Path&gt;" fill="none" id="a6be86c7-662b-4d39-87ef-9604bdbadca9" points="29 47 8 47 10 41 12 41" stroke="#001c63" stroke-linecap="round" stroke-linejoin="round" stroke-width="2"/><polygon data-name="&lt;Path&gt;" fill="none" id="20466da3-0e60-4209-b17c-5048756e8ea4" points="29 47 40 47 40 46 40 43 29 43 29 47" stroke="#001c63" stroke-linecap="round" stroke-linejoin="round" stroke-width="2"/><rect data-name="&lt;Path&gt;" fill="none" height="5" id="1f7c4c59-06f0-4a02-a219-78ec7c4a8672" stroke="#001c63" stroke-linecap="round" stroke-linejoin="round" stroke-width="2" width="4" x="12" y="36"/><line data-name="&lt;Path&gt;" fill="none" id="14d81c41-ed26-4af5-9faf-c9277744b44f" stroke="#001c63" stroke-linecap="round" stroke-linejoin="round" stroke-width="2" x1="14" x2="18" y1="44" y2="44"/><line data-name="&lt;Path&gt;" fill="none" id="04294ee8-8686-40ac-90e6-d38ee3e94ed2" stroke="#001c63" stroke-linecap="round" stroke-linejoin="round" stroke-width="2" x1="25" x2="40" y1="33" y2="33"/><line data-name="&lt;Path&gt;" fill="none" id="eed5d46c-15bf-458e-a798-4ebc8e4a98a1" stroke="#001c63" stroke-linecap="round" stroke-linejoin="round" stroke-width="2" x1="30" x2="40" y1="28" y2="28"/><line data-name="&lt;Path&gt;" fill="none" id="4d572ca5-46ea-43a2-a64f-b41a66b8e96e" stroke="#001c63" stroke-linecap="round" stroke-linejoin="round" stroke-width="2" x1="34" x2="40" y1="23" y2="23"/><line data-name="&lt;Path&gt;" fill="none" id="d08ba41a-373e-4fe0-9cd2-c6a2060c83ce" stroke="#fff" stroke-linecap="round" stroke-linejoin="round" stroke-width="2" x1="51" x2="43" y1="50" y2="50"/><line data-name="&lt;Path&gt;" fill="none" id="99be269a-af17-4491-8d9a-c0f8170225b5" stroke="#fff" stroke-linecap="round" stroke-linejoin="round" stroke-width="2" x1="40" x2="40" y1="50" y2="50"/></g></svg>